HIERARCHY
ROOT Hips
{
	OFFSET -6.474376 92.780052 -12.937067
	CHANNELS 6 Xposition Yposition Zposition Xrotation Yrotation Zrotation
	JOINT LeftUpLeg
	{
		OFFSET 8.910001 -6.269997 0.000000
		CHANNELS 6 Xposition Yposition Zposition Xrotation Yrotation Zrotation
		JOINT LeftLeg
		{
			OFFSET 0.000000 -44.878643 0.000000
			CHANNELS 6 Xposition Yposition Zposition Xrotation Yrotation Zrotation
			JOINT LeftFoot
			{
				OFFSET 0.000000 -40.700958 0.000000
				CHANNELS 6 Xposition Yposition Zposition Xrotation Yrotation Zrotation
				JOINT LeftToeBase
				{
					OFFSET 0.000008 -6.262317 12.954720
					CHANNELS 6 Xposition Yposition Zposition Xrotation Yrotation Zrotation
					JOINT LeftToeBaseEnd
					{
						OFFSET 0.000000 0.000000 8.000000
						CHANNELS 6 Xposition Yposition Zposition Xrotation Yrotation Zrotation
						End Site
						{
							OFFSET 0.000000 8.000000 0.000000
						}
					}
				}
			}
		}
	}
	JOINT RightUpLeg
	{
		OFFSET -8.910000 -6.269997 0.000000
		CHANNELS 6 Xposition Yposition Zposition Xrotation Yrotation Zrotation
		JOINT RightLeg
		{
			OFFSET -0.000003 -44.878643 0.000439
			CHANNELS 6 Xposition Yposition Zposition Xrotation Yrotation Zrotation
			JOINT RightFoot
			{
				OFFSET 0.000003 -40.700958 0.000000
				CHANNELS 6 Xposition Yposition Zposition Xrotation Yrotation Zrotation
				JOINT RightToeBase
				{
					OFFSET 0.000001 -6.262317 12.954749
					CHANNELS 6 Xposition Yposition Zposition Xrotation Yrotation Zrotation
					JOINT RightToeBaseEnd
					{
						OFFSET 0.000670 0.000000 8.000000
						CHANNELS 6 Xposition Yposition Zposition Xrotation Yrotation Zrotation
						End Site
						{
							OFFSET 0.000000 8.000000 0.000000
						}
					}
				}
			}
		}
	}
	JOINT Spine
	{
		OFFSET 0.000000 7.000000 0.000000
		CHANNELS 6 Xposition Yposition Zposition Xrotation Yrotation Zrotation
		JOINT Spine1
		{
			OFFSET 0.000000 12.666664 0.000000
			CHANNELS 3 Xrotation Yrotation Zrotation
			JOINT Spine2
			{
				OFFSET 0.000000 12.666664 0.000000
				CHANNELS 3 Xrotation Yrotation Zrotation
				JOINT LeftShoulder
				{
					OFFSET 7.000000 14.255211 0.000000
					CHANNELS 6 Xposition Yposition Zposition Xrotation Yrotation Zrotation
					JOINT LeftArm
					{
						OFFSET 10.707251 0.000000 0.000000
						CHANNELS 6 Xposition Yposition Zposition Xrotation Yrotation Zrotation
						JOINT LeftForeArm
						{
							OFFSET 27.305466 -0.000351 0.000000
							CHANNELS 6 Xposition Yposition Zposition Xrotation Yrotation Zrotation
							JOINT LeftHand
							{
								OFFSET 26.697147 -0.000336 0.000000
								CHANNELS 6 Xposition Yposition Zposition Xrotation Yrotation Zrotation
								JOINT LeftHandThumb1
								{
									OFFSET 4.348747 -0.798553 4.282434
									CHANNELS 6 Xposition Yposition Zposition Xrotation Yrotation Zrotation
									JOINT LeftHandThumb2
									{
										OFFSET 2.512581 -0.536133 0.707454
										CHANNELS 6 Xposition Yposition Zposition Xrotation Yrotation Zrotation
										JOINT LeftHandThumb3
										{
											OFFSET 2.543144 -0.000031 0.000010
											CHANNELS 6 Xposition Yposition Zposition Xrotation Yrotation Zrotation
											JOINT LeftHandThumb4
											{
												OFFSET 2.666748 -0.000015 -0.000008
												CHANNELS 6 Xposition Yposition Zposition Xrotation Yrotation Zrotation
												End Site
												{
													OFFSET 0.000023 2.666748 0.000000
												}
											}
										}
									}
								}
								JOINT LeftHandIndex1
								{
									OFFSET 8.821976 0.199615 3.471669
									CHANNELS 6 Xposition Yposition Zposition Xrotation Yrotation Zrotation
									JOINT LeftHandIndex2
									{
										OFFSET 4.225319 -0.000061 -0.000262
										CHANNELS 6 Xposition Yposition Zposition Xrotation Yrotation Zrotation
										JOINT LeftHandIndex3
										{
											OFFSET 2.652313 -0.000015 -0.092786
											CHANNELS 6 Xposition Yposition Zposition Xrotation Yrotation Zrotation
											JOINT LeftHandIndex4
											{
												OFFSET 1.953445 0.000000 -0.136721
												CHANNELS 6 Xposition Yposition Zposition Xrotation Yrotation Zrotation
												End Site
												{
													OFFSET -0.000008 1.958221 0.000002
												}
											}
										}
									}
								}
								JOINT LeftHandMiddle1
								{
									OFFSET 8.809883 0.500778 1.304685
									CHANNELS 6 Xposition Yposition Zposition Xrotation Yrotation Zrotation
									JOINT LeftHandMiddle2
									{
										OFFSET 4.863251 -0.000061 0.000000
										CHANNELS 6 Xposition Yposition Zposition Xrotation Yrotation Zrotation
										JOINT LeftHandMiddle3
										{
											OFFSET 2.765236 -0.000031 -0.000173
											CHANNELS 6 Xposition Yposition Zposition Xrotation Yrotation Zrotation
											JOINT LeftHandMiddle4
											{
												OFFSET 2.005630 -0.000031 -0.000251
												CHANNELS 6 Xposition Yposition Zposition Xrotation Yrotation Zrotation
												End Site
												{
													OFFSET 0.000023 2.005630 0.000000
												}
											}
										}
									}
								}
								JOINT LeftHandRing1
								{
									OFFSET 8.893768 0.379807 -0.793159
									CHANNELS 6 Xposition Yposition Zposition Xrotation Yrotation Zrotation
									JOINT LeftHandRing2
									{
										OFFSET 4.537758 -0.000061 -0.000282
										CHANNELS 6 Xposition Yposition Zposition Xrotation Yrotation Zrotation
										JOINT LeftHandRing3
										{
											OFFSET 2.304527 -0.000031 -0.000287
											CHANNELS 6 Xposition Yposition Zposition Xrotation Yrotation Zrotation
											JOINT LeftHandRing4
											{
												OFFSET 1.923347 -0.000031 -0.000360
												CHANNELS 6 Xposition Yposition Zposition Xrotation Yrotation Zrotation
												End Site
												{
													OFFSET 0.000023 1.923340 0.000000
												}
											}
										}
									}
								}
								JOINT LeftHandPinky1
								{
									OFFSET 8.882271 -0.313141 -2.490356
									CHANNELS 6 Xposition Yposition Zposition Xrotation Yrotation Zrotation
									JOINT LeftHandPinky2
									{
										OFFSET 3.044098 -0.000046 0.000000
										CHANNELS 6 Xposition Yposition Zposition Xrotation Yrotation Zrotation
										JOINT LeftHandPinky3
										{
											OFFSET 1.974503 -0.000046 0.000000
											CHANNELS 6 Xposition Yposition Zposition Xrotation Yrotation Zrotation
											JOINT LeftHandPinky4
											{
												OFFSET 1.666618 -0.000061 0.000001
												CHANNELS 6 Xposition Yposition Zposition Xrotation Yrotation Zrotation
												End Site
												{
													OFFSET 0.000092 1.666611 0.000000
												}
											}
										}
									}
								}
							}
						}
					}
				}
				JOINT RightShoulder
				{
					OFFSET -7.000000 14.255211 0.000000
					CHANNELS 6 Xposition Yposition Zposition Xrotation Yrotation Zrotation
					JOINT RightArm
					{
						OFFSET -10.707276 0.000000 0.000000
						CHANNELS 6 Xposition Yposition Zposition Xrotation Yrotation Zrotation
						JOINT RightForeArm
						{
							OFFSET -27.305599 -0.001099 0.000000
							CHANNELS 6 Xposition Yposition Zposition Xrotation Yrotation Zrotation
							JOINT RightHand
							{
								OFFSET -26.696991 -0.001083 0.000000
								CHANNELS 6 Xposition Yposition Zposition Xrotation Yrotation Zrotation
								JOINT RightHandThumb1
								{
									OFFSET -4.348351 -0.798676 4.282815
									CHANNELS 6 Xposition Yposition Zposition Xrotation Yrotation Zrotation
									JOINT RightHandThumb2
									{
										OFFSET -2.512505 -0.536194 0.707677
										CHANNELS 6 Xposition Yposition Zposition Xrotation Yrotation Zrotation
										JOINT RightHandThumb3
										{
											OFFSET -2.541588 -0.000107 0.088820
											CHANNELS 6 Xposition Yposition Zposition Xrotation Yrotation Zrotation
											JOINT RightHandThumb4
											{
												OFFSET -2.665123 -0.000137 0.093137
												CHANNELS 6 Xposition Yposition Zposition Xrotation Yrotation Zrotation
												End Site
												{
													OFFSET -0.000153 2.666748 -0.000000
												}
											}
										}
									}
								}
								JOINT RightHandIndex1
								{
									OFFSET -8.821678 0.199371 3.472445
									CHANNELS 6 Xposition Yposition Zposition Xrotation Yrotation Zrotation
									JOINT RightHandIndex2
									{
										OFFSET -4.225319 -0.000168 0.000114
										CHANNELS 6 Xposition Yposition Zposition Xrotation Yrotation Zrotation
										JOINT RightHandIndex3
										{
											OFFSET -2.652321 -0.000107 0.092696
											CHANNELS 6 Xposition Yposition Zposition Xrotation Yrotation Zrotation
											JOINT RightHandIndex4
											{
												OFFSET -1.953445 -0.000076 0.136656
												CHANNELS 6 Xposition Yposition Zposition Xrotation Yrotation Zrotation
												End Site
												{
													OFFSET -0.000076 1.958221 0.000000
												}
											}
										}
									}
								}
								JOINT RightHandMiddle1
								{
									OFFSET -8.809784 0.500534 1.305458
									CHANNELS 6 Xposition Yposition Zposition Xrotation Yrotation Zrotation
									JOINT RightHandMiddle2
									{
										OFFSET -4.863251 -0.000198 0.000132
										CHANNELS 6 Xposition Yposition Zposition Xrotation Yrotation Zrotation
										JOINT RightHandMiddle3
										{
											OFFSET -2.763550 -0.000107 0.096583
											CHANNELS 6 Xposition Yposition Zposition Xrotation Yrotation Zrotation
											JOINT RightHandMiddle4
											{
												OFFSET -2.000740 -0.000076 0.139965
												CHANNELS 6 Xposition Yposition Zposition Xrotation Yrotation Zrotation
												End Site
												{
													OFFSET -0.000084 2.005630 0.000000
												}
											}
										}
									}
								}
								JOINT RightHandRing1
								{
									OFFSET -8.893845 0.379562 -0.792377
									CHANNELS 6 Xposition Yposition Zposition Xrotation Yrotation Zrotation
									JOINT RightHandRing2
									{
										OFFSET -4.537758 -0.000183 0.000123
										CHANNELS 6 Xposition Yposition Zposition Xrotation Yrotation Zrotation
										JOINT RightHandRing3
										{
											OFFSET -2.303123 -0.000092 0.080492
											CHANNELS 6 Xposition Yposition Zposition Xrotation Yrotation Zrotation
											JOINT RightHandRing4
											{
												OFFSET -1.918655 -0.000076 0.134222
												CHANNELS 6 Xposition Yposition Zposition Xrotation Yrotation Zrotation
												End Site
												{
													OFFSET -0.000076 1.923355 0.000000
												}
											}
										}
									}
								}
								JOINT RightHandPinky1
								{
									OFFSET -8.882484 -0.313385 -2.489574
									CHANNELS 6 Xposition Yposition Zposition Xrotation Yrotation Zrotation
									JOINT RightHandPinky2
									{
										OFFSET -3.047798 -0.000122 0.000083
										CHANNELS 6 Xposition Yposition Zposition Xrotation Yrotation Zrotation
										JOINT RightHandPinky3
										{
											OFFSET -1.975693 -0.000031 0.069049
											CHANNELS 6 Xposition Yposition Zposition Xrotation Yrotation Zrotation
											JOINT RightHandPinky4
											{
												OFFSET -1.664574 0.000000 0.116447
												CHANNELS 6 Xposition Yposition Zposition Xrotation Yrotation Zrotation
												End Site
												{
													OFFSET 0.000038 1.668640 -0.000008
												}
											}
										}
									}
								}
							}
						}
					}
				}
				JOINT Neck
				{
					OFFSET 0.000000 12.666664 0.000000
					CHANNELS 6 Xposition Yposition Zposition Xrotation Yrotation Zrotation
					JOINT Head
					{
						OFFSET 0.000000 10.000000 0.000000
						CHANNELS 3 Xrotation Yrotation Zrotation
						JOINT HeadEnd
						{
							OFFSET 0.000000 20.000000 0.000000
							CHANNELS 3 Xrotation Yrotation Zrotation
							End Site
							{
								OFFSET 0.000000 20.000000 0.000000
							}
						}
					}
				}
			}
		}
	}
}
MOTION
Frames: 3
Frame Time: 0.008333
211.992340 150.010712 -145.928925 -39.097400 167.188209 264.804686 8.910013 -6.269997 -0.000005 -71.083814 18.231899 -12.954488 0.000006 -44.878624 -0.000015 131.482549 0.000003 -0.000004 -0.000016 -40.700943 0.000011 -30.874303 2.278211 -14.585048 0.000023 -6.262340 12.954699 -16.852961 0.000003 0.000002 0.000022 0.000021 7.999978 -0.000001 0.000003 0.000002 -8.909979 -6.270014 -0.000002 -67.744132 11.766251 -35.307669 -0.000004 -44.878639 0.000417 133.321659 0.000001 -0.000005 -0.000034 -40.700943 0.000004 -12.643542 -14.891769 -22.418984 0.000035 -6.262332 12.954779 -3.950897 -0.000007 0.000330 0.000641 0.000004 8.000036 0.000003 -0.000001 -0.000001 0.000017 6.999990 0.000006 11.214886 2.550233 3.591725 22.289923 5.746525 6.629896 22.289892 5.746520 6.629891 7.000000 14.255218 0.000001 12.036576 -5.993744 -5.228353 10.707247 0.000012 0.000001 -23.996408 -33.955664 -62.984398 27.305450 -0.000351 0.000017 -0.001607 -65.682323 -0.001038 26.697124 -0.000309 -0.000009 -59.802486 -8.031816 -19.570570 4.348736 -0.798553 4.282426 34.905924 -55.379464 49.689257 2.512598 -0.536117 0.707447 0.000059 0.000905 0.000090 2.543145 -0.000047 0.000030 0.000001 0.000003 -0.000004 2.666756 -0.000017 -0.000020 -0.000000 0.000001 -0.000000 8.821968 0.199609 3.471671 0.000261 0.000013 0.017823 4.225293 -0.000091 -0.000258 -0.001508 0.000005 -0.049085 2.652307 -0.000021 -0.092792 0.002124 -0.000032 0.030364 1.953455 0.000004 -0.136726 -0.000001 -0.000001 0.000006 8.809868 0.500779 1.304681 0.000029 -0.000003 0.097126 4.863230 -0.000064 0.000008 0.000018 0.000026 -0.267918 2.765251 -0.000012 -0.000163 0.000018 0.000210 0.169718 2.005605 -0.000018 -0.000265 -0.000003 0.000001 0.000001 8.893762 0.379799 -0.793162 0.000016 0.000020 0.010254 4.537745 -0.000089 -0.000281 0.000172 0.000003 0.026214 2.304524 -0.000014 -0.000308 -0.000029 -0.000141 -0.108364 1.923366 -0.000027 -0.000377 -0.000003 -0.000000 -0.000001 8.882245 -0.313159 -2.490366 0.000028 0.000035 0.000013 3.044063 -0.000024 0.000017 0.000265 0.000026 -0.002799 1.974505 -0.000052 0.000014 -0.000010 -0.000004 -0.000004 1.666587 -0.000059 0.000013 0.000002 0.000003 0.000003 -6.999996 14.255207 -0.000022 8.542633 0.475363 -1.208645 -10.707279 -0.000013 -0.000036 -4.946114 -3.092483 42.135331 -27.305613 -0.001107 -0.000025 -0.024944 84.714160 0.022735 -26.696968 -0.001115 0.000003 -45.121770 0.197468 32.507671 -4.348363 -0.798666 4.282798 34.209149 55.615263 -49.545666 -2.512496 -0.536176 0.707682 0.000223 -0.002245 -0.000172 -2.541600 -0.000091 0.088835 -0.000007 -0.000317 -0.000059 -2.665140 -0.000159 0.093126 -0.000001 0.000001 -0.000006 -8.821707 0.199394 3.472426 -0.000510 0.000009 -0.037668 -4.225313 -0.000194 0.000096 0.003394 0.000014 0.097145 -2.652343 -0.000121 0.092698 -0.004083 -0.000262 -0.058371 -1.953428 -0.000070 0.136670 0.000009 0.000003 0.000002 -8.809795 0.500540 1.305449 -0.000728 -0.000125 -0.056654 -4.863235 -0.000176 0.000144 0.005571 -0.000002 0.157771 -2.763549 -0.000112 0.096553 -0.007053 0.000612 -0.100950 -2.000735 -0.000077 0.139954 -0.000003 0.000003 0.000001 -8.893867 0.379555 -0.792382 0.000165 0.000007 0.012974 -4.537746 -0.000230 0.000118 -0.000985 -0.000056 -0.032481 -2.303120 -0.000082 0.080460 0.001140 -0.000006 0.015993 -1.918649 -0.000090 0.134234 -0.000011 0.000004 0.000000 -8.882520 -0.313407 -2.489583 -0.000069 -0.000015 -0.004655 -3.047801 -0.000119 0.000100 0.000216 -0.000058 0.001887 -1.975730 0.000013 0.069053 0.001338 0.000290 0.019116 -1.664547 -0.000014 0.116445 -0.000004 0.000004 0.000008 0.000008 12.666666 -0.000024 -5.506548 5.466195 8.534560 -20.922087 18.257627 10.084751 0.000001 0.000002 -0.000000 
213.787598 149.335983 -147.083420 -41.440325 170.397032 268.317752 8.910007 -6.269997 -0.000005 -72.760236 18.275032 -11.345156 -0.000009 -44.878624 0.000001 130.757579 -0.000002 0.000001 -0.000008 -40.700951 -0.000019 -29.898053 2.931511 -14.084518 -0.000013 -6.262304 12.954680 -19.432670 0.000000 0.000002 0.000017 0.000015 8.000001 -0.000000 -0.000002 0.000001 -8.909990 -6.269999 -0.000001 -67.124265 12.593801 -36.029634 0.000004 -44.878658 0.000429 131.322886 -0.000000 -0.000007 0.000027 -40.700951 0.000021 -12.508824 -16.037668 -21.676915 -0.000004 -6.262302 12.954748 -4.190129 -0.000013 0.000351 0.000690 -0.000008 8.000006 0.000003 0.000002 0.000001 0.000007 6.999997 0.000002 11.167148 2.531655 3.391017 22.205683 5.668917 6.237569 22.205678 5.668944 6.237563 7.000004 14.255194 0.000013 12.008353 -5.787378 -5.287395 10.707249 0.000002 0.000003 -23.594470 -33.658889 -62.503853 27.305473 -0.000335 0.000012 -0.001617 -65.804467 -0.001046 26.697155 -0.000348 0.000015 -59.870576 -8.346702 -19.585970 4.348767 -0.798533 4.282443 34.905948 -55.379464 49.689257 2.512583 -0.536151 0.707454 0.000085 0.000920 0.000076 2.543133 -0.000024 0.000000 -0.000000 0.000010 0.000001 2.666753 -0.000028 -0.000049 0.000000 0.000000 0.000001 8.822003 0.199628 3.471674 0.000033 0.000020 0.000019 4.225321 -0.000097 -0.000264 0.000135 -0.000005 -0.001620 2.652309 0.000002 -0.092780 0.000017 -0.000002 0.000005 1.953440 -0.000015 -0.136729 -0.000001 -0.000003 -0.000004 8.809899 0.500769 1.304686 0.000023 -0.000007 -0.000040 4.863225 -0.000048 0.000008 0.000049 0.000028 -0.000417 2.765229 -0.000045 -0.000171 -0.000005 -0.000002 0.000025 2.005654 -0.000015 -0.000250 -0.000000 0.000001 0.000003 8.893781 0.379808 -0.793158 0.000013 -0.000023 0.060161 4.537721 -0.000075 -0.000285 0.000175 0.000003 -0.121984 2.304497 -0.000042 -0.000277 -0.000006 0.000328 -0.010295 1.923307 -0.000028 -0.000350 -0.000001 -0.000000 -0.000002 8.882283 -0.313128 -2.490354 0.000043 0.000020 0.000015 3.044125 -0.000048 -0.000005 0.000260 0.000032 -0.002932 1.974507 -0.000066 0.000010 0.000008 -0.000001 0.000011 1.666632 -0.000055 0.000006 0.000003 0.000002 0.000007 -6.999985 14.255214 -0.000000 8.539747 0.662226 -1.447511 -10.707267 -0.000021 -0.000016 -4.785972 -2.649633 41.718765 -27.305622 -0.001079 -0.000021 -0.021116 83.761069 0.018942 -26.697021 -0.001092 0.000014 -44.807571 1.272365 32.035343 -4.348360 -0.798665 4.282792 34.208535 55.614873 -49.545120 -2.512492 -0.536198 0.707685 0.000243 -0.002349 -0.000193 -2.541620 -0.000093 0.088799 -0.000010 0.001422 -0.000052 -2.665120 -0.000156 0.093133 0.000006 0.000005 -0.000001 -8.821695 0.199422 3.472430 -0.000002 -0.000010 -0.000008 -4.225322 -0.000170 0.000107 0.000026 0.000016 0.000292 -2.652323 -0.000069 0.092711 0.000009 -0.000009 -0.000021 -1.953475 -0.000014 0.136676 -0.000003 0.000005 0.000006 -8.809793 0.500574 1.305454 -0.000022 -0.000031 -0.000312 -4.863276 -0.000170 0.000139 0.000093 -0.000007 0.000792 -2.763523 -0.000134 0.096590 0.000142 0.000241 0.001776 -2.000747 -0.000057 0.139958 -0.000006 -0.000003 -0.000006 -8.893857 0.379593 -0.792379 0.000010 -0.000017 0.000000 -4.537777 -0.000226 0.000133 0.000280 -0.000057 0.002469 -2.303155 -0.000083 0.080464 -0.000001 -0.000003 -0.000003 -1.918646 -0.000100 0.134239 0.000001 -0.000002 -0.000001 -8.882505 -0.313369 -2.489583 -0.000016 0.000000 0.000015 -3.047811 -0.000134 0.000059 0.000215 -0.000053 0.001728 -1.975696 -0.000022 0.069033 0.000006 0.000007 0.000001 -1.664582 -0.000005 0.116452 0.000000 -0.000001 0.000003 0.000000 12.666669 0.000014 -5.328873 4.911391 8.766217 -20.650819 16.619238 10.238345 -0.000000 0.000001 -0.000003 
215.600876 148.459808 -148.259323 -43.454237 173.732664 271.495703 8.909988 -6.269971 -0.000002 -74.377195 18.209479 -9.577375 0.000014 -44.878651 -0.000015 129.794016 0.000001 -0.000003 0.000007 -40.700935 -0.000031 -28.715983 3.678677 -13.379290 -0.000009 -6.262332 12.954722 -21.229258 -0.000002 0.000001 -0.000018 0.000029 7.999997 -0.000001 0.000001 -0.000001 -8.910023 -6.269977 0.000004 -66.297593 13.366227 -36.420433 0.000011 -44.878647 0.000442 129.040988 0.000003 -0.000002 -0.000000 -40.700958 0.000012 -12.021966 -17.280064 -20.755195 0.000027 -6.262317 12.954771 -4.337121 -0.000013 0.000365 0.000682 -0.000008 8.000007 -0.000001 0.000001 0.000002 -0.000026 7.000032 0.000002 11.126540 2.540363 3.182319 22.135065 5.644216 5.823761 22.135065 5.644259 5.823762 6.999988 14.255203 -0.000008 11.994458 -5.603922 -5.379150 10.707266 0.000001 -0.000001 -23.184579 -33.322417 -61.971433 27.305481 -0.000350 0.000003 -0.001622 -65.853515 -0.001049 26.697172 -0.000316 -0.000034 -60.146318 -8.699561 -19.688743 4.348766 -0.798531 4.282443 34.905955 -55.379447 49.689285 2.512581 -0.536136 0.707451 0.000074 0.000922 0.000070 2.543154 -0.000042 0.000029 0.000006 0.000030 0.000013 2.666747 -0.000016 -0.000007 0.000000 0.000000 0.000001 8.821989 0.199658 3.471674 0.000120 -0.000027 0.005978 4.225293 -0.000089 -0.000257 -0.000395 0.000006 -0.015572 2.652320 -0.000008 -0.092783 0.000451 -0.000057 0.006384 1.953427 -0.000003 -0.136711 -0.000000 -0.000006 -0.000008 8.809902 0.500798 1.304686 0.000004 -0.000087 -0.012768 4.863240 -0.000067 0.000004 0.000058 0.000045 -0.020304 2.765215 -0.000042 -0.000182 0.000005 0.000318 0.108240 2.005643 0.000007 -0.000243 0.000006 -0.000003 -0.000002 8.893786 0.379811 -0.793142 0.000011 -0.000003 -0.000036 4.537765 -0.000058 -0.000297 0.000210 0.000007 -0.001908 2.304517 -0.000031 -0.000274 -0.000002 0.000024 0.000002 1.923327 -0.000031 -0.000372 0.000003 -0.000001 -0.000001 8.882291 -0.313126 -2.490347 0.000027 -0.000053 0.041584 3.044111 -0.000045 0.000018 0.000287 0.000039 -0.087908 1.974508 -0.000050 -0.000009 0.000011 0.000283 0.018712 1.666618 -0.000048 -0.000002 0.000003 -0.000000 0.000000 -6.999997 14.255212 -0.000007 8.507591 0.894643 -1.678027 -10.707259 -0.000001 0.000003 -4.686743 -2.059847 41.334946 -27.305586 -0.001106 -0.000019 -0.017680 82.559864 0.015522 -26.696995 -0.001090 -0.000018 -44.248674 2.441413 31.379310 -4.348329 -0.798648 4.282795 34.209163 55.615263 -49.545683 -2.512527 -0.536160 0.707666 0.000241 -0.002490 -0.000196 -2.541588 -0.000116 0.088812 -0.000017 0.000021 0.000034 -2.665125 -0.000162 0.093132 -0.000003 -0.000003 -0.000008 -8.821676 0.199402 3.472452 -0.000006 -0.000038 0.000020 -4.225322 -0.000217 0.000119 0.000012 0.000014 0.000310 -2.652307 -0.000085 0.092731 0.000004 0.000161 -0.000157 -1.953447 -0.000074 0.136658 0.000003 0.000003 0.000001 -8.809786 0.500578 1.305460 -0.000052 -0.000050 0.000002 -4.863253 -0.000156 0.000121 0.000109 -0.000014 0.000765 -2.763557 -0.000064 0.096591 -0.000002 0.000144 -0.000140 -2.000749 -0.000042 0.139972 -0.000004 0.000001 -0.000003 -8.893820 0.379580 -0.792379 0.000007 -0.000015 -0.000012 -4.537739 -0.000201 0.000120 0.000329 -0.000062 0.002826 -2.303171 -0.000101 0.080486 -0.000025 0.000008 -0.000009 -1.918664 -0.000061 0.134218 -0.000004 0.000002 0.000000 -8.882485 -0.313356 -2.489576 -0.000014 0.000054 0.000290 -3.047780 -0.000165 0.000087 0.000210 -0.000055 0.001724 -1.975703 0.000001 0.069050 -0.000106 -0.000141 -0.001407 -1.664573 -0.000008 0.116425 -0.000003 -0.000003 0.000003 -0.000012 12.666668 -0.000018 -5.123569 4.337626 8.967600 -20.309540 14.931319 10.329744 0.000001 0.000001 0.000000 
